<?xml version="1.0" encoding="utf-8"?>
<!-- Generator: Adobe Illustrator 25.2.1, SVG Export Plug-In . SVG Version: 6.00 Build 0)  -->
<svg version="1.0" id="Ebene_1" xmlns="http://www.w3.org/2000/svg" xmlns:xlink="http://www.w3.org/1999/xlink" x="0px" y="0px"
	 viewBox="0 0 7504 2785" style="enable-background:new 0 0 7504 2785;" xml:space="preserve">
<style type="text/css">
	.st0{clip-path:url(#SVGID_2_);fill:#FFFFFF;}
	.st1{clip-path:url(#SVGID_2_);fill:#D53640;}
	.st2{clip-path:url(#SVGID_2_);fill:#FFDD43;}
	.st3{clip-path:url(#SVGID_2_);fill:#2047AB;}
	.st4{fill:#0D2C99;}
	.st5{fill-rule:evenodd;clip-rule:evenodd;fill:#0D2C99;}
</style>
<g>
	<defs>
		<path id="SVGID_1_" d="M2112.5,2104.5c-154.8,0-281-126.5-281-281.5s126.2-281.5,281-281.5s281,126.5,281,281.5
			S2267.3,2104.5,2112.5,2104.5z"/>
	</defs>
	<clipPath id="SVGID_2_">
		<use xlink:href="#SVGID_1_"  style="overflow:visible;"/>
	</clipPath>
	<rect x="1690" y="1538" class="st0" width="844" height="570"/>
	<path class="st1" d="M2534,1964.8h-844v127.3c0,8.3,6.5,15,14.6,15h814.9c8,0,14.6-6.7,14.6-15V1964.8z"/>
	<path class="st2" d="M2534,1822.5h-844V1553c0-8.3,6.5-15,14.6-15h814.9c8,0,14.6,6.7,14.6,15V1822.5z"/>
	<path class="st3" d="M2534,1822.5h-844v142.3h844V1822.5z"/>
</g>
<path class="st4" d="M2112.5,1548.9c150.4,0,273.6,123.4,273.6,274.1s-123.2,274.1-273.6,274.1s-273.6-123.4-273.6-274.1
	S1962,1548.9,2112.5,1548.9z M2112.5,1538c-157,0-284.5,127.8-284.5,285s127.5,285,284.5,285s284.5-127.8,284.5-285
	S2269.5,1538,2112.5,1538z"/>
<path class="st5" d="M1718.5,1426.5c-0.3,0-35.4-4.5-39.5-4.7c-0.4,0-0.9,0-1.5-0.1c-3.2-0.1-8.7-0.3-12.6-0.6
	c-2.8-0.2-5.9-2.5-6-5.3c-0.1-1.4-0.1-3-0.1-4.7c0-1.4,0-2.9-0.1-4.3c0-6.1,0.7-16,1-18.3c0-0.1,0.1-0.3,0.2-0.5
	c0.2-0.4,0.7-0.5,1.1-0.5h7.8c1.2,0,1.2,3,1.1,4.8c0,0.1,0,0.2,0,0.4c0,1.6-0.3,14-0.3,15.7c0,1.8,3.4,3.2,7.7,3.1
	c4.3-0.2,41.3-2.3,42-2.3c0,0,0,0,0,0c0.7,0,77.4-3.4,85.5-3.8c8.1-0.4,9.3-12.2,9.2-21.4c-0.1-5.7-1.3-11.3-2.2-14.7
	c-0.5-2-2.4-3.4-4.5-3.4l-9.3-0.2c-1.4,0-2.5-1.2-2.4-2.7c0.1-1.4,1.2-2.4,2.6-2.3l23.1,1c2.3,0.1,4.2,1.8,5.3,3.9
	c0.8,1.5,2.1,2.8,3.8,2.8c1.1,0,1.9-0.5,2.5-1.2c0.1-0.1,0.2-0.3,0.3-0.4c1.7-2,3.6-4.3,6.2-4.2c2.7,0.1,4.8,2.3,4.7,5
	c-0.1,4.4-0.2,10.7-0.3,13.9c0,5.4,2.3,10.4,5.8,10.6c1.4,0.1,2.4-0.5,3.1-1.4c1.7-2,3.8-4.1,6.3-4l7.8,0.3c2.7,0.1,4.7,2.4,5.6,4.9
	c0.7,1.8,1.9,3.4,4,3.4c2.2,0.2,3.5-1.4,4.4-3.2c1.1-2.4,3.3-4.5,6-4.4l50.6,1.8c1.7,0.1,3,1.3,4.3,2.5c0.7,0.6,1.4,1.3,2.1,1.8
	c0.4,0.2,0.9,0.4,1.4,0.4c1,0,1.9-0.5,2.5-1.1c1.6-1.5,3.4-3,5.6-3l20.2,0.6c1.5,0,2.9-0.6,3.9-1.7l0.4-0.4c1.9-2.2,5.4-2.3,7.6-0.3
	c3.3,2.8,8,6.2,11.5,6.1c5.9,0,15.6-8.1,19.4-16.5c1.7-3.7,2.6-7,3.1-9.5c0.6-2.7,2.8-4.9,5.6-4.9c23-0.1,119-0.3,128.3-0.3
	c10.6-0.2,11.7-27.5,10.9-25.7c-0.4,1-1.8,4.6-2.8,7.4c-0.8,2.1-2.9,3.4-5.1,3.2l-144.2-11.7c-1.6-0.1-3-1-4.1-2.2
	c-2.2-2.3-6.6-6-13.3-6.5c-6.4-0.5-10.9,2.4-13.3,4.5c-1.4,1.2-3.3,2-5.2,1.7l-122.5-19.8c-1.6-0.2-2.9-1.2-3.8-2.5
	c-2.7-3.8-9.6-11.3-21.5-11.6c-7-0.3-10.9,1.5-13.1,3.3c-2,1.7-4.7,3.3-7.3,2.9c-127.1-22.6-139.8-36-141.1-38
	c-0.1-0.2-0.1-0.3-0.2-0.5c-0.2-2.3-1.8-18.4-1.8-41.8c0-94.1-39.7-147.9-55.7-147.9c-0.1,0-0.1,0-0.2,0c-0.1,0-0.1,0-0.2,0
	c-16,0-55.7,53.8-55.7,147.9c0,23.4-1.5,39.5-1.8,41.8c0,0.2,0,0.4-0.1,0.5c-1.2,2-14,15.4-141.1,38c-2.6,0.5-5.3-1.2-7.3-2.9
	c-2.2-1.8-6.2-3.6-13.1-3.3c-11.8,0.3-18.7,7.8-21.4,11.6c-0.9,1.3-2.3,2.2-3.8,2.5l-122.5,19.8c-1.8,0.3-3.7-0.5-5.2-1.7
	c-2.4-2.1-6.9-4.9-13.3-4.5c-6.8,0.5-11.2,4.2-13.3,6.5c-1.1,1.2-2.5,2-4.1,2.2l-144.2,11.7c-2.2,0.2-4.3-1.1-5.1-3.2
	c-1-2.8-2.4-6.4-2.8-7.4c-0.7-1.8,0.4,25.5,10.9,25.7c9.3,0,105.2,0.3,128.3,0.3c2.8,0,5,2.2,5.6,4.9c0.5,2.5,1.4,5.7,3.1,9.5
	c3.8,8.5,13.5,16.5,19.4,16.5c3.5,0.1,8.2-3.3,11.5-6.1c2.2-1.9,5.7-1.9,7.6,0.3l0.4,0.4c1,1.1,2.4,1.7,3.9,1.7l20.2-0.6
	c2.2-0.1,4,1.5,5.6,3c0.7,0.6,1.5,1.1,2.5,1.1c0.6,0,1-0.2,1.4-0.4c0.8-0.5,1.4-1.1,2.1-1.8c1.3-1.2,2.6-2.4,4.3-2.5l50.6-1.8
	c2.7-0.1,4.8,2,6,4.4c0.8,1.8,2.2,3.3,4.4,3.2c2.2,0,3.4-1.6,4-3.4c0.9-2.5,2.9-4.8,5.6-4.9l7.8-0.3c2.6-0.1,4.6,2,6.3,4
	c0.7,0.8,1.7,1.4,3.1,1.4c3.4-0.2,5.8-5.2,5.8-10.6c-0.1-3.2-0.2-9.5-0.3-13.9c0-2.7,2.1-4.9,4.7-5c2.6-0.1,4.5,2.2,6.2,4.2
	c0.1,0.1,0.2,0.3,0.3,0.4c0.6,0.7,1.4,1.2,2.5,1.2c1.8,0,3-1.3,3.8-2.8c1.1-2,3-3.8,5.3-3.9l23.1-1c1.3-0.1,2.5,1,2.6,2.3
	c0.1,1.4-1,2.6-2.4,2.7l-9.4,0.2c-2.1,0.1-3.9,1.4-4.5,3.4c-0.9,3.4-2.1,9-2.2,14.7c-0.2,9.2,1.1,21.1,9.2,21.4
	c8,0.4,84.8,3.7,85.5,3.8c0,0,0,0,0,0c0.7,0,37.7,2.2,42,2.3c4.3,0.2,7.7-1.2,7.7-3.1c0-1.7-0.3-14-0.4-15.7c0-0.1,0-0.2,0-0.2
	c0,0,0-0.1,0-0.1c-0.2-1.8-0.1-4.8,1.1-4.8h7.8c0.4,0,0.9,0.1,1.1,0.5c0.1,0.1,0.2,0.3,0.2,0.5c0.4,2.3,1,12.2,1,18.3
	c0,1.4-0.1,2.9-0.1,4.3c0,1.7,0,3.3-0.1,4.7c-0.1,2.8-3.3,5.1-6,5.2c-3.8,0.2-9,0.5-12.2,0.6c-0.8,0-1.4,0.1-1.9,0.1
	c-4.1,0.2-39.2,4.6-39.5,4.7c0,0,0,0,0,0c-0.3,0-75.2,9.2-77.2,9.5s-1.8,3.8,0,3.8c0.3,0,2,0.1,4.7,0.3c13.8,0.8,54.9,3.4,81.5,2.6
	c27.3-0.9,60.8-2.1,70.1-2.4c1.6-0.1,3.1,0.6,4.1,1.8c3.9,4.4,13.9,15.3,22.1,18.4c-0.7,0.5-0.9,0.8,0.1,0.8h3.8c0,0,0,0,0.1,0h4.2
	c1,0,0.8-0.3,0.1-0.8c8.2-3,18.3-13.9,22.1-18.4c1-1.2,2.5-1.9,4.1-1.8c9.3,0.3,42.8,1.5,70.1,2.4c26.6,0.8,67.7-1.8,81.5-2.6
	c2.7-0.2,4.4-0.3,4.7-0.3c1.8,0,2-3.4,0-3.8C1793.8,1435.6,1718.8,1426.5,1718.5,1426.5L1718.5,1426.5z"/>
<path class="st4" d="M2865,1806.2V958.8h221v847.4H2865z"/>
<path class="st4" d="M3857.8,958.8h223.4l-385.6,847.4h-175.4l-385.6-847.4h229.4l246.2,572.1L3857.8,958.8z"/>
<path class="st4" d="M4690,1806.2l-75.7-175.5h-374.8l-75.7,175.5h-222.2l395.2-847.4h175.4l396.4,847.4H4690z M4310.5,1464.8h233
	L4427,1193.2L4310.5,1464.8z"/>
<path class="st4" d="M5338.9,1817c-86.5,0-161.8-17.6-225.8-52.9c-63.3-36-112.1-86.5-146.5-151.4c-34.4-65.7-51.6-142.6-51.6-230.8
	s17.2-164.7,51.6-229.6c34.4-65.7,83.3-116.2,146.5-151.4c64.1-35.3,139.3-52.9,225.8-52.9s161.4,17.6,224.6,52.9
	c64.1,35.2,112.9,85.7,146.5,151.4c34.4,64.9,51.6,141.4,51.6,229.6s-17.2,165.1-51.6,230.8c-34.4,64.9-83.7,115.4-147.7,151.4
	C5499,1799.4,5424.5,1817,5338.9,1817z M5338.9,1647.5c64.1,0,114.1-22.4,150.1-67.3c36-45.7,54.1-111.8,54.1-198.3
	c0-86.5-18.4-152.2-55.2-197.1c-36-44.9-85.7-67.3-148.9-67.3c-64.1,0-114.1,22.4-150.1,67.3c-36,44.1-54.1,109.8-54.1,197.1
	s18,153.4,54.1,198.3C5224.8,1625.1,5274.8,1647.5,5338.9,1647.5z"/>
<path class="st4" d="M6112.7,1572.8c-32.7,0-61.3-7.1-85.7-21.2c-24.1-14.1-42.7-34.2-55.8-60.2c-12.8-26.3-19.2-57.1-19.2-92.4
	c0-35.3,6.4-65.9,19.2-91.9c13.2-26.3,31.8-46.4,55.8-60.2c24.4-14.1,53-21.2,85.7-21.2c23.1,0,44.6,3.7,64.5,11.1
	c19.9,7.1,36.7,17.3,50.5,30.8l-17.3,36.6c-15.7-13.2-31.4-22.6-47.2-28.4c-15.4-5.8-32.1-8.7-50.1-8.7c-35.3,0-62.6,11.4-81.8,34.2
	c-18.9,22.8-28.4,55.3-28.4,97.7c0,42.4,9.5,75.1,28.4,98.2c19.3,22.8,46.5,34.2,81.8,34.2c18,0,34.6-2.9,50.1-8.7
	c15.7-5.8,31.4-15.2,47.2-28.4l17.3,36.6c-13.8,13.5-30.6,23.9-50.5,31.3C6157.3,1569.3,6135.8,1572.8,6112.7,1572.8z
	 M6429.4,1572.8c-32.1,0-60-7.1-83.8-21.2c-23.4-14.1-41.5-34.2-54.4-60.2c-12.8-26-19.2-56.6-19.2-91.9c0-35.6,6.3-66.4,18.8-92.4
	c12.8-26.3,31.1-46.4,54.9-60.2c23.8-14.1,51.7-21.2,83.8-21.2c32.4,0,60.5,7.1,84.2,21.2c23.8,13.8,41.9,33.8,54.4,60.2
	c12.8,26,19.3,56.6,19.3,91.9c0,35.3-6.4,66.1-19.3,92.4c-12.5,26-30.6,46-54.4,60.2C6489.9,1565.8,6461.8,1572.8,6429.4,1572.8z
	 M6429.4,1532.4c34,0,60.5-11.6,79.4-34.7c18.9-23.1,28.4-56,28.4-98.7c0-42.7-9.5-75.4-28.4-98.2c-18.6-23.1-45.1-34.7-79.4-34.7
	c-33.7,0-60,11.6-78.9,34.7c-18.6,22.8-27.9,55.5-27.9,98.2c0,42.7,9.3,75.6,27.9,98.7C6369.4,1520.9,6395.7,1532.4,6429.4,1532.4z"
	/>
<path class="st4" d="M1611,653c-364.5,0-660,295.5-660,660s295.5,660,660,660c53.4,0,105.3-6.3,155-18.3
	c-6.1-16.1-11.2-32.8-15-49.9c-45,10.6-91.8,16.2-140,16.2c-335.8,0-608-272.2-608-608s272.2-608,608-608s608,272.2,608,608
	c0,51.5-6.4,101.6-18.5,149.4c17,4.1,33.6,9.4,49.6,15.8c13.7-52.8,20.9-108.2,20.9-165.2C2271,948.5,1975.5,653,1611,653z"/>
</svg>
